<?xml version="1.0" encoding="UTF-8" standalone="no"?>
<!-- Uploaded to: SVG Repo, www.svgrepo.com, Generator: SVG Repo Mixer Tools -->

<svg
   width="800px"
   height="800px"
   viewBox="0 0 100 100"
   version="1.1"
   id="svg16"
   sodipodi:docname="export_viewpoints.svg"
   inkscape:export-filename="/tmp/pignerolc/export_viewpoints.png"
   inkscape:export-xdpi="40.043846"
   inkscape:export-ydpi="40.043846"
   inkscape:version="1.1.2 (0a00cf5339, 2022-02-04)"
   xmlns:inkscape="http://www.inkscape.org/namespaces/inkscape"
   xmlns:sodipodi="http://sodipodi.sourceforge.net/DTD/sodipodi-0.dtd"
   xmlns="http://www.w3.org/2000/svg"
   xmlns:svg="http://www.w3.org/2000/svg">
  <defs
     id="defs20">
    <marker
       style="overflow:visible"
       id="TriangleInL"
       refX="0.0"
       refY="0.0"
       orient="auto"
       inkscape:stockid="TriangleInL"
       inkscape:isstock="true">
      <path
         transform="scale(-0.8)"
         style="fill-rule:evenodd;fill:context-stroke;stroke:context-stroke;stroke-width:1.0pt"
         d="M 5.77,0.0 L -2.88,5.0 L -2.88,-5.0 L 5.77,0.0 z "
         id="path1049" />
    </marker>
  </defs>
  <sodipodi:namedview
     id="namedview18"
     pagecolor="#ffffff"
     bordercolor="#666666"
     borderopacity="1.0"
     inkscape:pageshadow="2"
     inkscape:pageopacity="0.0"
     inkscape:pagecheckerboard="0"
     showgrid="false"
     inkscape:zoom="1.09125"
     inkscape:cx="324.39863"
     inkscape:cy="400"
     inkscape:window-width="2490"
     inkscape:window-height="1376"
     inkscape:window-x="0"
     inkscape:window-y="0"
     inkscape:window-maximized="1"
     inkscape:current-layer="svg16"
     inkscape:snap-grids="false"
     inkscape:snap-to-guides="false" />
  <g
     id="g862"
     inkscape:export-filename="/tmp/pignerolc/export_viewpoints.png"
     inkscape:export-xdpi="40.043854"
     inkscape:export-ydpi="40.043854">
    <path
       style="fill:#90b1de;stroke:#2c3d60;stroke-width:0.3px"
       d="M 40.600248,57.7 V 41.5 c 0,-0.6 0.2,-0.8 0.8,-0.8 h 17.2 c 0.6,0 0.8,0.4 0.8,1 v 17 c 0,0.4 0,0.8 -0.8,0.8 h -16.2 z"
       id="path2" />
    <path
       style="fill:#4e7ec2;stroke-width:0.2"
       d="m 41.200248,41.3 v 16.2 l 1.4,1.4 h 16.2 V 41.3 Z"
       id="path4" />
    <path
       style="fill:#999999;stroke:#555555;stroke-width:0.4px"
       d="m 45.600248,52.5 c -0.8,0 -0.8,0.4 -0.8,0.8 v 6.2 h 10.4 v -6.2 c 0,-0.4 -0.2,-0.8 -0.8,-0.8 z m 2,0.8 c 1.4,0 1.2,0.6 1.2,0.6 v 3.6 c 0,0 0.2,0.6 -1.2,0.6 -1.2,0 -1,-0.6 -1,-0.6 v -3.6 c 0,0 -0.2,-0.6 1,-0.6 z"
       id="path6" />
    <rect
       style="fill:#ff0000;fill-opacity:0.7;stroke-width:0.2"
       width="13.2"
       height="2"
       x="43.400249"
       y="40.900002"
       id="rect8" />
    <rect
       style="fill:#eeeeee;stroke-width:0.2"
       width="13.2"
       height="8.3999996"
       x="43.400249"
       y="42.900002"
       id="rect10" />
    <rect
       style="fill:#2c3d60;stroke-width:0.2"
       width="1.2"
       height="1.2"
       x="41.600246"
       y="41.900002"
       id="rect12" />
    <path
       style="fill:none;stroke:#bbbbbb;stroke-width:0.4px"
       d="m 44.200248,49.5 h 11.6 m -11.6,-2.4 h 11.6 m -11.6,-2.2 h 11.6"
       id="path14" />
  </g>
  <g
     id="g1372"
     transform="matrix(0.15625,0,0,0.15625,41.484685,40.5375)"
     inkscape:export-filename="/tmp/pignerolc/export_viewpoints.png"
     inkscape:export-xdpi="40.043854"
     inkscape:export-ydpi="40.043854">
    <path
       id="path2217"
       style="fill:#0000f8;fill-opacity:1;stroke:#000000;stroke-width:0;stroke-linecap:round;stroke-linejoin:round;stroke-miterlimit:4;stroke-dasharray:none"
       d="m 76,42 c -0.293848,-0.457248 1.026712,0 -32.85479,14 -3.448412,-3.564221 -5.581299,-8.488148 -5.581299,-13.926968 0,-5.43882 2.132887,-10.362748 5.581299,-13.926969 C 77.026712,42 75.706152,41.542752 76,42 Z"
       sodipodi:nodetypes="ccscc" />
    <path
       style="font-variation-settings:normal;opacity:1;vector-effect:none;fill:none;fill-opacity:1;stroke:#000000;stroke-width:1.04062px;stroke-linecap:round;stroke-linejoin:round;stroke-miterlimit:4;stroke-dasharray:none;stroke-dashoffset:0;stroke-opacity:1;-inkscape-stroke:none;stop-color:#000000;stop-opacity:1"
       d="M 77,42 32,24"
       id="path4517" />
    <path
       style="font-variation-settings:normal;opacity:1;vector-effect:none;fill:none;fill-opacity:1;stroke:#000000;stroke-width:1.0113px;stroke-linecap:round;stroke-linejoin:miter;stroke-miterlimit:4;stroke-dasharray:none;stroke-dashoffset:0;stroke-opacity:1;-inkscape-stroke:none;stop-color:#000000;stop-opacity:1"
       d="M 77,42 32,61"
       id="path4519" />
  </g>
  <g
     inkscape:groupmode="layer"
     id="layer1"
     inkscape:label="Layer 1" />
  <g
     id="g848"
     transform="matrix(2,0,0,-2,-44.196672,114.35393)"
     style="stroke:#ffd500;stroke-opacity:1"
     inkscape:export-filename="/tmp/pignerolc/export_viewpoints.png"
     inkscape:export-xdpi="40.043854"
     inkscape:export-ydpi="40.043854">
    <path
       style="font-variation-settings:normal;fill:#00ff00;fill-opacity:1;stroke:#ffd500;stroke-width:1.07878;stroke-linecap:butt;stroke-linejoin:miter;stroke-miterlimit:4;stroke-dasharray:none;stroke-dashoffset:0;stroke-opacity:1;stop-color:#000000"
       d="m 50.00216,36.539099 -0.0037,-1.812133"
       id="path914" />
    <path
       style="font-variation-settings:normal;fill:none;fill-opacity:1;stroke:#ffd500;stroke-width:0.390625;stroke-linecap:butt;stroke-linejoin:miter;stroke-miterlimit:4;stroke-dasharray:none;stroke-dashoffset:0;stroke-opacity:1;marker-start:url(#TriangleInL);stop-color:#000000"
       d="m 50.009407,36.539099 -0.0041,-0.499524"
       id="path3307" />
  </g>
</svg>
